<?xml version="1.0" encoding="UTF-8" standalone="no"?>
<svg
   xmlns:dc="http://purl.org/dc/elements/1.1/"
   xmlns:cc="http://creativecommons.org/ns#"
   xmlns:rdf="http://www.w3.org/1999/02/22-rdf-syntax-ns#"
   xmlns:svg="http://www.w3.org/2000/svg"
   xmlns="http://www.w3.org/2000/svg"
   xmlns:sodipodi="http://sodipodi.sourceforge.net/DTD/sodipodi-0.dtd"
   xmlns:inkscape="http://www.inkscape.org/namespaces/inkscape"
   width="500"
   height="500"
   viewBox="0 0 132.29166 132.29167"
   version="1.1"
   id="svg8"
   inkscape:version="1.0.1 (3bc2e813f5, 2020-09-07)"
   sodipodi:docname="favicon.svg">
  <defs
     id="defs2" />
  <sodipodi:namedview
     id="base"
     pagecolor="#ffffff"
     bordercolor="#666666"
     borderopacity="1.0"
     inkscape:pageopacity="0.0"
     inkscape:pageshadow="2"
     inkscape:zoom="0.98994949"
     inkscape:cx="-284.4284"
     inkscape:cy="204.80406"
     inkscape:document-units="mm"
     inkscape:current-layer="text835"
     inkscape:document-rotation="0"
     showgrid="false"
     units="px"
     inkscape:window-width="2560"
     inkscape:window-height="1346"
     inkscape:window-x="-11"
     inkscape:window-y="-11"
     inkscape:window-maximized="1" />
  <metadata
     id="metadata5">
    <rdf:RDF>
      <cc:Work
         rdf:about="">
        <dc:format>image/svg+xml</dc:format>
        <dc:type
           rdf:resource="http://purl.org/dc/dcmitype/StillImage" />
        <dc:title />
      </cc:Work>
    </rdf:RDF>
  </metadata>
  <g
     inkscape:label="Layer 1"
     inkscape:groupmode="layer"
     id="layer1">
    <g
       aria-label="W"
       id="text835"
       style="font-size:112.309px;line-height:1.25;font-family:'Carter One';-inkscape-font-specification:'Carter One';stroke-width:0.264583">
      <path
         d="m 79.993391,8.2909937 q 0.274192,-0.9870908 0.603222,-1.5903129 0.32903,-0.6580606 1.480636,-0.9322524 L 98.254571,2.0394187 q 0.109676,0 0.274191,-0.054838 0.164516,-0.054838 0.274192,-0.054838 0.767738,0 1.041929,0.6580605 0.329027,0.6580606 0.329027,1.2612827 0,0.1096768 -0.0548,0.4387071 0,0.3290302 -0.0548,0.438707 L 77.361149,73.713179 q -0.877415,2.248373 -1.480637,3.674171 -0.548383,1.370959 -1.151606,2.303212 -0.548383,0.877414 -1.316121,1.480636 -0.712899,0.603222 -1.974181,1.206444 -1.206445,0.603223 -3.070949,1.37096 -1.864505,0.822576 -4.716101,2.193535 -0.987091,0.493545 -1.535475,0.493545 -0.877414,0 -1.316121,-0.65806 -0.438707,-0.658061 -0.712899,-1.480636 L 50.709697,50.900413 38.974284,75.084138 q -0.274192,0.658061 -1.261283,1.754828 -0.987091,1.096768 -2.248373,2.248374 -1.206445,1.151606 -2.467727,2.248373 -1.206445,1.041929 -1.974182,1.69999 -0.712899,0.603222 -1.535474,1.206444 -0.767738,0.603222 -1.590313,1.096768 -0.822576,0.493545 -1.590313,0.767737 -0.712899,0.32903 -1.37096,0.32903 -1.425798,0 -1.864505,-1.590313 L 1.7938637,9.8264683 Q 1.6841869,9.3877613 1.5196718,8.9490543 1.409995,8.5103473 1.409995,8.1264786 q 0,-1.3709594 0.6580605,-2.3032119 Q 2.7261161,4.8910143 4.3712674,4.2329538 6.0164188,3.5748932 8.7583377,3.1910246 11.500257,2.7523176 15.722812,2.4781257 17.696993,2.2039338 19.013114,2.094257 q 1.37096,-0.1096767 2.303212,-0.1096767 1.590313,0 2.083859,0.4935454 0.493545,0.4935454 0.877414,1.6451513 L 35.574304,47.610111 44.951667,31.487628 41.167819,14.981276 q -0.32903,-1.316121 -0.274192,-1.974182 0,-1.261282 0.658061,-2.02902 0.65806,-0.767737 2.193535,-1.2612824 1.535474,-0.4935454 4.003201,-0.8774141 2.522566,-0.3838686 6.141899,-0.877414 1.590313,-0.2193535 2.741919,-0.3290303 1.151606,-0.1096767 1.974181,-0.1096767 1.645152,0 2.248374,0.4935454 0.603222,0.4935454 0.877414,1.5903129 L 69.19023,43.387556 Z"
         style="font-size:112.309px;stroke-width:0.264583"
         id="path837" />
    </g>
    <g
       aria-label="O"
       id="text847"
       style="font-size:112.309px;line-height:1.25;font-family:'Carter One';-inkscape-font-specification:'Carter One';stroke-width:0.264583">
      <path
         d="m 73.24692,92.404364 q 0,3.948364 0.822575,7.951566 0.877414,3.94836 2.851596,7.12899 1.974182,3.18062 5.209646,5.15481 3.235464,1.97418 8.006403,1.97418 3.674172,-0.21936 6.41609,-1.48064 2.796758,-1.31612 4.77094,-3.34514 2.02902,-2.08386 3.34514,-4.7161 1.31612,-2.68708 2.08386,-5.593515 0.76774,-2.961272 1.04193,-6.032221 0.32903,-3.07095 0.32903,-5.922545 0,-3.893525 -1.04193,-7.512858 -1.04193,-3.674171 -3.12579,-6.470929 -2.08386,-2.796757 -5.209644,-4.496747 -3.07095,-1.699989 -7.183828,-1.699989 -3.235464,0 -5.867706,1.206444 -2.577404,1.206444 -4.606424,3.235464 -2.02902,1.974182 -3.509656,4.606424 -1.425798,2.577404 -2.412889,5.374161 -0.932252,2.741919 -1.425798,5.538676 -0.438707,2.741919 -0.493545,5.099969 z m 10.693483,40.251366 q -8.225756,0 -14.696685,-3.07095 -6.470928,-3.07094 -10.967675,-8.28059 -4.441909,-5.26448 -6.854798,-12.11928 -2.35805,-6.90964 -2.35805,-14.58701 0,-8.609626 2.412889,-15.848292 2.467727,-7.293504 6.854797,-12.887019 4.38707,-5.648352 10.419292,-9.487039 6.08706,-3.893525 13.325726,-5.75803 0.65806,0 0.98709,-1.041929 0.383869,-1.041929 0.658061,-2.303212 0.274192,-1.261282 0.658061,-2.303212 0.383868,-1.041929 1.096767,-1.041929 10.638645,1.096768 19.138592,3.783848 8.49995,2.632242 14.4225,7.567697 5.92254,4.935454 9.04833,12.50315 3.18062,7.512857 3.18062,18.370856 0,6.964474 -1.69999,13.106373 -1.69999,6.141898 -4.77093,11.351548 -3.07095,5.1548 -7.40319,9.26768 -4.27739,4.05804 -9.54187,6.90964 -5.26449,2.85159 -11.351548,4.33223 -6.032222,1.53547 -12.557989,1.53547 z"
         style="font-size:112.309px;stroke-width:0.264583"
         id="path834" />
    </g>
  </g>
</svg>
