<?xml version="1.0" encoding="UTF-8" standalone="no"?>
<svg
   xmlns:dc="http://purl.org/dc/elements/1.1/"
   xmlns:cc="http://creativecommons.org/ns#"
   xmlns:rdf="http://www.w3.org/1999/02/22-rdf-syntax-ns#"
   xmlns:svg="http://www.w3.org/2000/svg"
   xmlns="http://www.w3.org/2000/svg"
   xmlns:sodipodi="http://sodipodi.sourceforge.net/DTD/sodipodi-0.dtd"
   xmlns:inkscape="http://www.inkscape.org/namespaces/inkscape"
   width="128"
   height="128"
   viewBox="0 0 33.866666 33.866668"
   version="1.1"
   id="svg8"
   inkscape:version="1.0.1 (3bc2e813f5, 2020-09-07)"
   sodipodi:docname="heartless.svg">
  <defs
     id="defs2" />
  <sodipodi:namedview
     id="base"
     pagecolor="#ffffff"
     bordercolor="#666666"
     borderopacity="1.0"
     inkscape:pageopacity="0.0"
     inkscape:pageshadow="2"
     inkscape:zoom="8"
     inkscape:cx="37.772484"
     inkscape:cy="64.940922"
     inkscape:document-units="px"
     inkscape:current-layer="layer1"
     inkscape:document-rotation="0"
     showgrid="false"
     units="px"
     inkscape:window-width="2560"
     inkscape:window-height="1346"
     inkscape:window-x="-11"
     inkscape:window-y="-11"
     inkscape:window-maximized="1" />
  <metadata
     id="metadata5">
    <rdf:RDF>
      <cc:Work
         rdf:about="">
        <dc:format>image/svg+xml</dc:format>
        <dc:type
           rdf:resource="http://purl.org/dc/dcmitype/StillImage" />
        <dc:title></dc:title>
      </cc:Work>
    </rdf:RDF>
  </metadata>
  <g
     inkscape:label="Layer 1"
     inkscape:groupmode="layer"
     id="layer1">
    <g
       id="g1008"
       transform="matrix(1.3821839,0,0,1.3793104,-6.4716482,-6.4229906)">
      <path
         id="rect835"
         style="fill:#000000;fill-opacity:1;stroke-width:5.254"
         d="m 55.767578,43 c -2.743651,-0.02363 -5.638333,1.698092 -7.349609,4.662109 L 36.921875,67.572266 c -2.355795,4.080356 -1.547899,8.926234 1.810547,10.865234 3.340701,1.928755 7.908547,0.231257 10.27539,-3.802734 0.0029,0.181492 0.01139,0.360569 0.02539,0.539062 C 49.011557,75.44731 49,75.723301 49,76.003906 v 22.992188 c 0,4.711586 3.122001,8.503906 7,8.503906 3.877999,0 7,-3.79232 7,-8.503906 V 83 h 2 v 15.996094 c 0,4.711586 3.122001,8.503906 7,8.503906 3.877999,0 7,-3.79232 7,-8.503906 V 76.003906 c 0,-0.280605 -0.01156,-0.556596 -0.0332,-0.830078 0.014,-0.178493 0.02248,-0.35757 0.02539,-0.539062 2.366843,4.033991 6.934687,5.73149 10.27539,3.802734 3.358446,-1.939 4.166342,-6.784878 1.810547,-10.865234 L 79.582031,47.662109 C 77.905636,44.758508 75.093643,43.056069 72.400391,43.009766 66.335496,42.983042 61.242518,43 55.767578,43 Z m 10.625,8.214844 c 0.786894,0 1.527865,0.370485 2,1 0.472135,-0.629533 1.213106,-1 2,-1 1.380711,0 2.441304,1.322949 2.5,2.5 0.117997,2.365837 -3.29921,5.5 -4.5,5.5 -1.20079,0 -4.617997,-3.134163 -4.5,-5.5 0.0587,-1.177051 1.11929,-2.5 2.5,-2.5 z"
         transform="scale(0.26458334)" />
      <circle
         style="fill:#000000;fill-opacity:1;stroke-width:1.36585"
         id="path867"
         cx="16.933336"
         cy="8.0697927"
         r="2.6458333" />
      <path
         id="path916-5"
         style="fill:none;fill-opacity:1;stroke:#000000;stroke-width:0.132292;stroke-miterlimit:4;stroke-dasharray:0.132292, 0.132292;stroke-dashoffset:0;stroke-opacity:1"
         sodipodi:type="inkscape:offset"
         inkscape:radius="-0.1407548"
         inkscape:original="M 17.566406 13.550781 C 17.201094 13.550781 16.919829 13.899509 16.904297 14.210938 C 16.873077 14.836899 17.777994 15.667969 18.095703 15.667969 C 18.413412 15.667969 19.318329 14.836899 19.287109 14.210938 C 19.271579 13.89951 18.990312 13.550781 18.625 13.550781 C 18.416801 13.550781 18.220622 13.647889 18.095703 13.814453 C 17.970784 13.647894 17.774606 13.550781 17.566406 13.550781 z "
         d="m 17.566406,13.691406 c -0.137867,0 -0.263177,0.06509 -0.359375,0.167969 -0.0962,0.102878 -0.156318,0.243266 -0.162109,0.359375 -0.01208,0.24231 0.179587,0.59048 0.427734,0.861328 0.124074,0.135424 0.25903,0.251884 0.376953,0.332031 0.117924,0.08015 0.228032,0.115235 0.246094,0.115235 0.01806,0 0.128171,-0.03509 0.246094,-0.115235 0.117923,-0.08015 0.252879,-0.196607 0.376953,-0.332031 0.248147,-0.270848 0.43982,-0.619018 0.427734,-0.861328 -0.0058,-0.116107 -0.06591,-0.256497 -0.162109,-0.359375 -0.0962,-0.102878 -0.221507,-0.167969 -0.359375,-0.167969 -0.164432,0 -0.317781,0.07605 -0.416016,0.207032 a 0.14076888,0.14076888 0 0 1 -0.226562,0 c -0.09823,-0.130981 -0.251585,-0.207032 -0.416016,-0.207032 z" />
    </g>
  </g>
</svg>
