<?xml version="1.0" encoding="UTF-8" standalone="no"?>
<svg
   xmlns:dc="http://purl.org/dc/elements/1.1/"
   xmlns:cc="http://creativecommons.org/ns#"
   xmlns:rdf="http://www.w3.org/1999/02/22-rdf-syntax-ns#"
   xmlns:svg="http://www.w3.org/2000/svg"
   xmlns="http://www.w3.org/2000/svg"
   xmlns:sodipodi="http://sodipodi.sourceforge.net/DTD/sodipodi-0.dtd"
   xmlns:inkscape="http://www.inkscape.org/namespaces/inkscape"
   width="128"
   height="128"
   viewBox="0 0 33.866666 33.866668"
   version="1.1"
   id="svg8"
   inkscape:version="1.0.1 (3bc2e813f5, 2020-09-07)"
   sodipodi:docname="hipster.svg">
  <defs
     id="defs2" />
  <sodipodi:namedview
     id="base"
     pagecolor="#ffffff"
     bordercolor="#666666"
     borderopacity="1.0"
     inkscape:pageopacity="0.0"
     inkscape:pageshadow="2"
     inkscape:zoom="5.6568545"
     inkscape:cx="65.888569"
     inkscape:cy="74.314806"
     inkscape:document-units="px"
     inkscape:current-layer="layer1"
     inkscape:document-rotation="0"
     showgrid="false"
     units="px"
     inkscape:window-width="2560"
     inkscape:window-height="1346"
     inkscape:window-x="-11"
     inkscape:window-y="-11"
     inkscape:window-maximized="1"
     inkscape:snap-others="true"
     inkscape:object-nodes="false" />
  <metadata
     id="metadata5">
    <rdf:RDF>
      <cc:Work
         rdf:about="">
        <dc:format>image/svg+xml</dc:format>
        <dc:type
           rdf:resource="http://purl.org/dc/dcmitype/StillImage" />
        <dc:title></dc:title>
      </cc:Work>
    </rdf:RDF>
  </metadata>
  <g
     inkscape:label="Layer 1"
     inkscape:groupmode="layer"
     id="layer1">
    <path
       id="path3087"
       style="fill:none;fill-opacity:1;stroke:#000000;stroke-width:0.264583;stroke-miterlimit:4;stroke-dasharray:none;stroke-dashoffset:0;stroke-opacity:1"
       d="m 16.330802,9.9906343 c 0,1.5369777 -1.865851,2.7361727 -3.648228,2.7361727 -1.782378,0 -2.806331,-1.199194 -2.806331,-2.7361727 -1e-7,-1.536978 1.444902,-2.315223 3.22728,-2.315223 1.782377,10e-7 3.227279,0.778246 3.227279,2.315223 z"
       sodipodi:nodetypes="sssss" />
    <path
       id="path3087-9"
       style="fill:none;fill-opacity:1;stroke:#000000;stroke-width:0.264583;stroke-miterlimit:4;stroke-dasharray:none;stroke-dashoffset:0;stroke-opacity:1"
       d="m 17.535865,9.9906343 c 0,1.5369777 1.865851,2.7361727 3.648228,2.7361727 1.782378,0 2.806331,-1.199194 2.806331,-2.7361727 0,-1.536978 -1.444902,-2.315223 -3.22728,-2.315223 -1.782377,10e-7 -3.227279,0.778246 -3.227279,2.315223 z"
       sodipodi:nodetypes="sssss" />
    <path
       style="fill:none;stroke:#000000;stroke-width:0.264583px;stroke-linecap:butt;stroke-linejoin:miter;stroke-opacity:1"
       d="m 16.28403,9.7666573 c 0,0 0.360272,-0.200058 0.657734,-0.198782 0.297462,0.0013 0.628501,0.198782 0.628501,0.198782"
       id="path3105"
       sodipodi:nodetypes="czc" />
    <path
       id="path3107"
       style="fill:#000000;fill-opacity:1;stroke:none;stroke-width:0.264583;stroke-linecap:butt;stroke-linejoin:miter;stroke-miterlimit:4;stroke-dasharray:none;stroke-opacity:1"
       d="m 9.9693158,18.13861 c 3.0414352,-0.34303 5.7193642,-1.426484 6.8791672,-1.428551 1.159803,-0.0021 3.837732,1.081387 6.879167,1.424417 -2.936392,-1.067048 -5.519361,-3.648256 -6.879167,-3.650324 -1.359806,-0.0021 -3.942775,2.58741 -6.8791672,3.654458 z"
       sodipodi:nodetypes="ccccc" />
    <path
       id="path3125"
       style="fill:#000000;fill-opacity:1;stroke:none;stroke-width:0.246549px;stroke-linecap:butt;stroke-linejoin:miter;stroke-opacity:1"
       d="m 11.171095,16.369818 c -1.2914152,6.25826 1.781222,13.12873 5.578169,13.12873 3.796948,0 6.869585,-6.87047 5.578169,-13.12873 -2.42034,2.18285 -3.321939,2.989406 -5.578169,2.989406 -2.256229,0 -3.157828,-0.806556 -5.578169,-2.989406 z"
       sodipodi:nodetypes="cscsc" />
  </g>
</svg>
