<?xml version="1.0" encoding="UTF-8" standalone="no"?>
<svg
   xmlns:dc="http://purl.org/dc/elements/1.1/"
   xmlns:cc="http://creativecommons.org/ns#"
   xmlns:rdf="http://www.w3.org/1999/02/22-rdf-syntax-ns#"
   xmlns:svg="http://www.w3.org/2000/svg"
   xmlns="http://www.w3.org/2000/svg"
   xmlns:sodipodi="http://sodipodi.sourceforge.net/DTD/sodipodi-0.dtd"
   xmlns:inkscape="http://www.inkscape.org/namespaces/inkscape"
   width="128"
   height="128"
   viewBox="0 0 33.866666 33.866668"
   version="1.1"
   id="svg8"
   inkscape:version="1.0.1 (3bc2e813f5, 2020-09-07)"
   sodipodi:docname="rankteehee.svg">
  <defs
     id="defs2" />
  <sodipodi:namedview
     id="base"
     pagecolor="#ffffff"
     bordercolor="#666666"
     borderopacity="1.0"
     inkscape:pageopacity="0.0"
     inkscape:pageshadow="2"
     inkscape:zoom="8"
     inkscape:cx="47.94192"
     inkscape:cy="68.322853"
     inkscape:document-units="px"
     inkscape:current-layer="g3943"
     inkscape:document-rotation="0"
     showgrid="false"
     units="px"
     inkscape:window-width="2560"
     inkscape:window-height="1346"
     inkscape:window-x="-11"
     inkscape:window-y="-11"
     inkscape:window-maximized="1" />
  <metadata
     id="metadata5">
    <rdf:RDF>
      <cc:Work
         rdf:about="">
        <dc:format>image/svg+xml</dc:format>
        <dc:type
           rdf:resource="http://purl.org/dc/dcmitype/StillImage" />
        <dc:title></dc:title>
      </cc:Work>
    </rdf:RDF>
  </metadata>
  <g
     inkscape:label="Layer 1"
     inkscape:groupmode="layer"
     id="layer1">
    <g
       id="g1008"
       transform="matrix(1.3821839,0,0,1.3793104,-6.4716482,-6.4229906)">
      <g
         id="g3943"
         transform="matrix(2.7268771,0,0,2.7268771,-28.340482,-28.705387)">
        <path
           style="fill:none;stroke:#000000;stroke-width:0.0884629px;stroke-linecap:butt;stroke-linejoin:miter;stroke-opacity:1"
           d="m 14.627341,17.029087 c 0,0 0.302409,-0.152506 0.463948,-0.143116 0.200802,0.01171 0.552317,0.243526 0.552317,0.243526"
           id="path4669"
           sodipodi:nodetypes="cac" />
        <path
           style="fill:none;stroke:#000000;stroke-width:0.0884629px;stroke-linecap:butt;stroke-linejoin:miter;stroke-opacity:1"
           d="m 17.336371,16.445698 c 0,0 0.182866,-0.12187 0.320249,-0.328744 0.137384,-0.206871 0.652948,-0.140608 1.031046,0.02347 0.378098,0.164095 0.406171,0.375706 0.406171,0.375706"
           id="path4671"
           sodipodi:nodetypes="czzc" />
        <path
           style="fill:none;stroke:#000000;stroke-width:0.0442315;stroke-linecap:butt;stroke-linejoin:miter;stroke-miterlimit:4;stroke-dasharray:none;stroke-opacity:1"
           d="m 17.336371,16.445698 c 0,0 0.06682,0.825329 0.484279,0.931441 0.185065,0.04704 0.557804,0.04754 0.802395,-0.149497 0.307143,-0.247423 0.470792,-0.711504 0.470792,-0.711504"
           id="path4673"
           sodipodi:nodetypes="cssc" />
        <path
           style="fill:none;stroke:#000000;stroke-width:0.0884629px;stroke-linecap:butt;stroke-linejoin:miter;stroke-opacity:1"
           d="m 16.209732,19.069406 c 0,0 0.221875,0.225668 0.497086,0.221388 0.415315,-0.0065 0.966558,-0.484287 0.966558,-0.484287"
           id="path4675"
           sodipodi:nodetypes="csc" />
        <path
           style="fill:#000000;fill-opacity:1;stroke:none;stroke-width:0.0442315;stroke-linecap:butt;stroke-linejoin:miter;stroke-miterlimit:4;stroke-dasharray:none;stroke-opacity:1"
           d="m 17.38617,19.0445 c 0,0 0.226684,0.182868 0.323106,0.09409 0.09642,-0.08877 -0.05523,-0.304405 -0.05523,-0.304405 z"
           id="path4679"
           sodipodi:nodetypes="czcc" />
        <path
           style="fill:none;stroke:#000000;stroke-width:0.0884629px;stroke-linecap:butt;stroke-linejoin:miter;stroke-opacity:1"
           d="m 17.086419,14.85677 c 0,0 0.181588,0.160383 0.429604,0.242645 0.248016,0.08227 0.624876,0.07828 0.624876,0.07828"
           id="path4681"
           sodipodi:nodetypes="czc" />
        <path
           style="fill:none;stroke:#000000;stroke-width:0.0884629px;stroke-linecap:butt;stroke-linejoin:miter;stroke-opacity:1"
           d="m 15.110248,15.177687 c 0,0 0.289006,0.1722 0.562389,0.187853 0.273383,0.01567 0.523334,-0.04696 0.523334,-0.04696"
           id="path4683"
           sodipodi:nodetypes="ccc" />
        <ellipse
           style="fill:#000000;fill-opacity:1;stroke:none;stroke-width:0.0507693;stroke-miterlimit:4;stroke-dasharray:none;stroke-opacity:1"
           id="path4685"
           cx="18.191671"
           cy="16.613983"
           rx="0.39445329"
           ry="0.63791919" />
        <path
           style="fill:#000000;fill-opacity:1;stroke:none;stroke-width:0.0884629px;stroke-linecap:butt;stroke-linejoin:miter;stroke-opacity:1"
           d="m 10.628559,14.849207 c 0.283922,-0.417676 0.558865,-1.155458 0.894754,-1.744261 0.09156,-0.160507 1.156296,-0.588257 1.324895,-0.531446 0.103642,0.03492 0.300724,0.446717 0.454009,0.570234 0.09731,0.07842 0.05476,0.269527 -0.02253,0.299663 0.09862,0.09679 -0.0096,0.383743 -0.09941,0.431705 0.09576,0.09079 0.06549,0.446244 -0.04418,0.475983 0.0834,0.09404 0.09108,0.572963 -0.03314,0.564538 -0.294747,-0.01999 -0.692687,-0.101389 -0.817986,-0.02191 -0.225359,0.142945 -0.400956,0.934062 -0.606995,1.139916 -0.291092,-0.03032 -0.978574,-0.661251 -1.049414,-1.184423 z"
           id="path4687"
           sodipodi:nodetypes="cssscccsscsc" />
      </g>
    </g>
  </g>
</svg>
