<?xml version="1.0" encoding="UTF-8" standalone="no"?>
<svg
   xmlns:dc="http://purl.org/dc/elements/1.1/"
   xmlns:cc="http://creativecommons.org/ns#"
   xmlns:rdf="http://www.w3.org/1999/02/22-rdf-syntax-ns#"
   xmlns:svg="http://www.w3.org/2000/svg"
   xmlns="http://www.w3.org/2000/svg"
   xmlns:sodipodi="http://sodipodi.sourceforge.net/DTD/sodipodi-0.dtd"
   xmlns:inkscape="http://www.inkscape.org/namespaces/inkscape"
   width="128"
   height="128"
   viewBox="0 0 33.866666 33.866668"
   version="1.1"
   id="svg8"
   inkscape:version="1.0.1 (3bc2e813f5, 2020-09-07)"
   sodipodi:docname="rankchuuni.svg">
  <defs
     id="defs2">
    <inkscape:perspective
       sodipodi:type="inkscape:persp3d"
       inkscape:vp_x="0 : 16.933334 : 1"
       inkscape:vp_y="0 : 1000 : 0"
       inkscape:vp_z="33.866666 : 16.933334 : 1"
       inkscape:persp3d-origin="16.933333 : 11.288889 : 1"
       id="perspective3945" />
  </defs>
  <sodipodi:namedview
     id="base"
     pagecolor="#ffffff"
     bordercolor="#666666"
     borderopacity="1.0"
     inkscape:pageopacity="0.0"
     inkscape:pageshadow="2"
     inkscape:zoom="8"
     inkscape:cx="36.792324"
     inkscape:cy="62.25928"
     inkscape:document-units="px"
     inkscape:current-layer="g1008"
     inkscape:document-rotation="0"
     showgrid="false"
     units="px"
     inkscape:window-width="2560"
     inkscape:window-height="1346"
     inkscape:window-x="-11"
     inkscape:window-y="-11"
     inkscape:window-maximized="1" />
  <metadata
     id="metadata5">
    <rdf:RDF>
      <cc:Work
         rdf:about="">
        <dc:format>image/svg+xml</dc:format>
        <dc:type
           rdf:resource="http://purl.org/dc/dcmitype/StillImage" />
        <dc:title></dc:title>
      </cc:Work>
    </rdf:RDF>
  </metadata>
  <g
     inkscape:label="Layer 1"
     inkscape:groupmode="layer"
     id="layer1">
    <g
       id="g1008"
       transform="matrix(1.3821839,0,0,1.3793104,-6.4716482,-6.4229906)">
      <path
         style="fill:#000000;fill-opacity:1;stroke:#000000;stroke-width:0.191623px;stroke-linecap:butt;stroke-linejoin:miter;stroke-opacity:1"
         d="m 16.574414,26.52448 c -1.323,-0.763605 -1.805346,-2.269973 -2.105665,-2.781432 -0.515455,-0.877846 -5.9070205,-1.993577 -5.5273719,-3.189056 0.3654675,-1.150824 4.6427449,1.131966 4.8813149,0.695358 0.670887,-1.227791 -5.7716962,-4.25316 -4.5702507,-5.586843 1.0607137,-1.177461 5.2761727,4.337262 5.9102197,3.740547 0.64607,-0.60803 -3.832132,-6.295743 -2.584226,-7.169381 1.189598,-0.832817 4.175948,6.720326 5.144524,6.354134 1.285671,-0.486077 -0.979994,-7.262956 0.47856,-7.361204 1.791161,-0.120652 0.784271,7.511403 3.062786,9.926835 0.655864,-0.753687 0.977226,-1.242939 1.148545,-1.510605 0.07308,-0.900285 1.341411,-2.306312 2.081737,-1.774362 0.904424,0.64986 -0.365266,1.296077 -0.502489,1.954196 -0.0836,0.40092 -0.15796,0.785515 -0.23928,1.186904 -0.497282,0.607401 -0.83748,2.685521 -0.83748,2.685521 0,0 -0.864508,1.439422 -1.220329,2.421764 l 0.313422,1.060665 -5.239962,0.02043 z"
         id="path3961"
         sodipodi:nodetypes="cssssssssccsscccccc" />
      <path
         style="fill:none;stroke:#000000;stroke-width:0.191623px;stroke-linecap:butt;stroke-linejoin:miter;stroke-opacity:1"
         d="m 20.067904,15.194939 0.550344,-0.383646 2.679938,-0.395634"
         id="path3963" />
      <path
         style="fill:none;stroke:#000000;stroke-width:0.191623px;stroke-linecap:butt;stroke-linejoin:miter;stroke-opacity:1"
         d="M 17.495642,15.242895 17.124758,14.943172 14.851597,14.73936"
         id="path3965" />
      <ellipse
         style="fill:#000000;fill-opacity:1;stroke:#000000;stroke-width:0.0766494;stroke-miterlimit:4;stroke-dasharray:none;stroke-opacity:1"
         id="path3967"
         cx="16.341116"
         cy="15.129"
         rx="0.26919016"
         ry="0.23378417" />
      <ellipse
         style="fill:#000000;fill-opacity:1;stroke:#000000;stroke-width:0.0766494;stroke-miterlimit:4;stroke-dasharray:none;stroke-opacity:1"
         id="path3969"
         cx="21.569387"
         cy="14.907205"
         rx="0.26919016"
         ry="0.23977864" />
      <path
         style="fill:none;stroke:#000000;stroke-width:0.0958117;stroke-linecap:butt;stroke-linejoin:miter;stroke-miterlimit:4;stroke-dasharray:none;stroke-opacity:1"
         d="m 17.495642,15.242895 c 0,0 -0.203598,0.435047 -1.292112,0.455579 -0.362581,0.0068 -1.076761,-0.155856 -1.076761,-0.155856"
         id="path3971"
         sodipodi:nodetypes="csc" />
      <path
         style="fill:none;stroke:#000000;stroke-width:0.0958117;stroke-linecap:butt;stroke-linejoin:miter;stroke-miterlimit:4;stroke-dasharray:none;stroke-opacity:1"
         d="m 23.023014,14.727371 c 0,0 -0.385819,0.435078 -0.646057,0.539502 -0.552872,0.221847 -1.782637,0.119889 -1.782637,0.119889"
         id="path3973"
         sodipodi:nodetypes="cac" />
      <path
         style="fill:none;stroke:#000000;stroke-width:0.191623px;stroke-linecap:butt;stroke-linejoin:miter;stroke-opacity:1"
         d="m 21.120737,19.918578 -1.280149,-0.1079"
         id="path3975" />
    </g>
  </g>
</svg>
