<?xml version="1.0" encoding="UTF-8" standalone="no"?>
<svg
   xmlns:dc="http://purl.org/dc/elements/1.1/"
   xmlns:cc="http://creativecommons.org/ns#"
   xmlns:rdf="http://www.w3.org/1999/02/22-rdf-syntax-ns#"
   xmlns:svg="http://www.w3.org/2000/svg"
   xmlns="http://www.w3.org/2000/svg"
   xmlns:sodipodi="http://sodipodi.sourceforge.net/DTD/sodipodi-0.dtd"
   xmlns:inkscape="http://www.inkscape.org/namespaces/inkscape"
   width="128"
   height="128"
   viewBox="0 0 33.866666 33.866668"
   version="1.1"
   id="svg8"
   inkscape:version="1.0.1 (3bc2e813f5, 2020-09-07)"
   sodipodi:docname="smallbrain.svg">
  <defs
     id="defs2" />
  <sodipodi:namedview
     id="base"
     pagecolor="#ffffff"
     bordercolor="#666666"
     borderopacity="1.0"
     inkscape:pageopacity="0.0"
     inkscape:pageshadow="2"
     inkscape:zoom="5.6568545"
     inkscape:cx="73.179594"
     inkscape:cy="79.67473"
     inkscape:document-units="px"
     inkscape:current-layer="layer1"
     inkscape:document-rotation="0"
     showgrid="false"
     units="px"
     inkscape:window-width="2560"
     inkscape:window-height="1346"
     inkscape:window-x="-11"
     inkscape:window-y="-11"
     inkscape:window-maximized="1" />
  <metadata
     id="metadata5">
    <rdf:RDF>
      <cc:Work
         rdf:about="">
        <dc:format>image/svg+xml</dc:format>
        <dc:type
           rdf:resource="http://purl.org/dc/dcmitype/StillImage" />
        <dc:title></dc:title>
      </cc:Work>
    </rdf:RDF>
  </metadata>
  <g
     inkscape:label="Layer 1"
     inkscape:groupmode="layer"
     id="layer1">
    <path
       id="path3027"
       style="fill:#000000;fill-opacity:1;stroke:none;stroke-width:1.84781px;stroke-linecap:butt;stroke-linejoin:miter;stroke-opacity:1"
       d="M 65.111328 12.664062 C 47.971175 12.387413 32.610691 18.215824 23.582031 33.398438 C 9.4659325 57.136096 34.254619 75.476702 33.871094 103.0918 C 33.700199 115.3949 28.326172 128.5 28.326172 128.5 L 83.761719 128.03711 C 83.761719 128.03711 78.690696 116.23211 81.914062 111.86914 C 86.778579 105.2848 101.42467 113.66452 106.54492 107.00781 C 110.7495 101.54156 105.72377 99.655749 105.8125 96.462891 C 105.90226 93.232498 110.1298 90.999467 105.01172 89.234375 C 109.81817 87.849556 108.07682 86.220811 105.10742 82.59375 C 103.25153 80.326801 105.30519 78.655755 105.87305 77.917969 C 107.20089 76.192732 111.90426 78.136873 112.23438 72.552734 C 112.59899 66.38492 108.02529 67.110085 104.7793 57.820312 C 102.83276 52.249459 104.09517 47.446517 103.85547 41.421875 C 103.54272 33.561681 91.014789 15.201603 72.552734 13.146484 C 70.04475 12.867306 67.559921 12.703584 65.111328 12.664062 z M 62.0625 22.095703 C 80.124019 22.095703 94.765625 31.014659 94.765625 44.412109 C 94.765625 57.809559 81.458 61.029297 63.396484 61.029297 C 45.334961 61.029297 29.359375 57.809559 29.359375 44.412109 C 29.359376 31.014658 44.000981 22.095703 62.0625 22.095703 z "
       transform="scale(0.26458334)" />
    <path
       style="fill:#000000;fill-opacity:1;stroke:none;stroke-width:0.279036px;stroke-linecap:butt;stroke-linejoin:miter;stroke-opacity:1"
       d="m 17.760358,10.359174 c -0.08053,-0.313432 -0.399851,-0.4356043 -0.606326,-0.301696 -0.289839,-0.095008 -0.623913,0.01371 -0.794115,0.216843 -0.309416,-0.100175 -0.75656,-0.01838 -0.889242,0.252777 -0.252972,0.0899 -0.433014,0.372195 -0.282917,0.554474 -0.07391,0.332042 0.168954,0.794557 0.480595,0.713667 0.196729,0.262398 0.655592,0.121924 0.838625,-0.04823 0.332017,0.137316 0.736187,0.04615 0.876184,-0.151922 0.332571,0.05708 0.680103,-0.21042 0.594041,-0.441801 0.08953,-0.259378 0.03848,-0.714484 -0.216845,-0.794113 z"
       id="path3033"
       sodipodi:nodetypes="cccccccccc" />
    <path
       style="fill:none;stroke:#000000;stroke-width:0.264583px;stroke-linecap:butt;stroke-linejoin:miter;stroke-opacity:1"
       d="m 15.990814,11.729093 c 0,0 -0.482566,1.461772 -0.67355,2.393382 -0.190984,0.931611 -0.315797,2.698037 -0.315797,2.698037"
       id="path3035"
       sodipodi:nodetypes="czc" />
  </g>
</svg>
