<?xml version="1.0" encoding="UTF-8" standalone="no"?>
<svg
	 xmlns:dc="http://purl.org/dc/elements/1.1/"
	 xmlns:cc="http://creativecommons.org/ns#"
	 xmlns:rdf="http://www.w3.org/1999/02/22-rdf-syntax-ns#"
	 xmlns:svg="http://www.w3.org/2000/svg"
	 xmlns="http://www.w3.org/2000/svg"
	 xmlns:sodipodi="http://sodipodi.sourceforge.net/DTD/sodipodi-0.dtd"
	 xmlns:inkscape="http://www.inkscape.org/namespaces/inkscape"
	 width="128"
	 height="128"
	 viewBox="0 0 33.866666 33.866668"
	 version="1.1"
	 id="svg8"
	 inkscape:version="1.0.1 (3bc2e813f5, 2020-09-07)"
	 sodipodi:docname="stan.svg">
	<defs
		 id="defs2" />
	<sodipodi:namedview
		 id="base"
		 pagecolor="#ffffff"
		 bordercolor="#666666"
		 borderopacity="1.0"
		 inkscape:pageopacity="0.0"
		 inkscape:pageshadow="2"
		 inkscape:zoom="8.0000004"
		 inkscape:cx="39.221531"
		 inkscape:cy="68.770078"
		 inkscape:document-units="px"
		 inkscape:current-layer="layer1"
		 inkscape:document-rotation="0"
		 showgrid="false"
		 units="px"
		 inkscape:window-width="2560"
		 inkscape:window-height="1346"
		 inkscape:window-x="-11"
		 inkscape:window-y="-11"
		 inkscape:window-maximized="1" />
	<metadata
		 id="metadata5">
		<rdf:RDF>
			<cc:Work
				 rdf:about="">
				<dc:format>image/svg+xml</dc:format>
				<dc:type
					 rdf:resource="http://purl.org/dc/dcmitype/StillImage" />
				<dc:title></dc:title>
			</cc:Work>
		</rdf:RDF>
	</metadata>
	<g
		 inkscape:label="Layer 1"
		 inkscape:groupmode="layer"
		 id="layer1">
		<rect
			 style="fill:#000000;stroke-width:0.141225;stroke-dasharray:0.141225, 0.141225"
			 id="rect2931"
			 width="1.3229166"
			 height="3.96875"
			 x="4.3964891"
			 y="8.1612253"
			 transform="rotate(-30)" />
		<rect
			 style="fill:#000000;stroke-width:0.141225;stroke-dasharray:0.141225, 0.141225"
			 id="rect2931-9"
			 width="1.3229166"
			 height="3.96875"
			 x="-24.932905"
			 y="-8.7721081"
			 transform="matrix(-0.86602539,-0.50000002,-0.50000002,0.86602539,0,0)" />
		<rect
			 style="fill:#000000;fill-opacity:1;stroke-width:1.39012"
			 id="rect835"
			 width="7.9375"
			 height="10.583333"
			 x="12.986454"
			 y="12.592918"
			 ry="2.2501948" />
		<rect
			 style="fill:#000000;fill-opacity:1;stroke-width:0.949633"
			 id="rect835-6"
			 width="3.7041667"
			 height="10.583333"
			 x="12.986454"
			 y="19.075209"
			 ry="2.2501948" />
		<rect
			 style="fill:#000000;fill-opacity:1;stroke-width:0.949632"
			 id="rect835-6-3"
			 width="3.7041667"
			 height="10.583333"
			 x="17.21979"
			 y="19.075209"
			 ry="2.2501948" />
		<circle
			 style="fill:#000000;fill-opacity:1;stroke-width:1.36585"
			 id="path867"
			 cx="16.955208"
			 cy="9.2856264"
			 r="2.6458333" />
		<rect
			 style="fill:#000000;fill-opacity:1;stroke-width:0.949632"
			 id="rect835-6-3-8"
			 width="3.7041667"
			 height="10.583333"
			 x="22.377243"
			 y="-5.2684517"
			 ry="2.2501948"
			 transform="matrix(0.8660254,0.5,0.5,-0.8660254,0,0)" />
		<rect
			 style="fill:#000000;fill-opacity:1;stroke-width:0.949632"
			 id="rect835-6-3-8-9"
			 width="3.7041667"
			 height="10.583333"
			 x="3.2858636"
			 y="-22.223669"
			 ry="2.2501948"
			 transform="matrix(0.86602541,-0.49999998,-0.49999998,-0.86602541,0,0)" />
		<rect
			 style="fill:#000000;fill-opacity:1;stroke-width:1.22699"
			 id="rect914"
			 width="4.4011936"
			 height="1.2343286"
			 x="14.776838"
			 y="12.592916"
			 ry="0" />
		<rect
			 style="fill:#fefefe;fill-opacity:1;stroke-width:0.149156;stroke-dasharray:0.149156, 0.149156"
			 id="rect2948"
			 width="6.1271534"
			 height="1.3229166"
			 x="14.053521"
			 y="7.43012" />
		<g
			 id="g3025"
			 transform="matrix(0.77110988,0,0,0.77110988,3.5669346,-1.2896778)">
			<path
				 id="path916-5"
				 style="fill:#030303;fill-opacity:1;stroke:none;stroke-width:0.132292;stroke-miterlimit:4;stroke-dasharray:0.132292, 0.132292;stroke-dashoffset:0;stroke-opacity:1"
				 sodipodi:type="inkscape:offset"
				 inkscape:radius="-0.1407548"
				 inkscape:original="M 17.566406 13.550781 C 17.201094 13.550781 16.919829 13.899509 16.904297 14.210938 C 16.873077 14.836899 17.777994 15.667969 18.095703 15.667969 C 18.413412 15.667969 19.318329 14.836899 19.287109 14.210938 C 19.271579 13.89951 18.990312 13.550781 18.625 13.550781 C 18.416801 13.550781 18.220622 13.647889 18.095703 13.814453 C 17.970784 13.647894 17.774606 13.550781 17.566406 13.550781 z "
				 d="m 17.566406,13.691406 c -0.137867,0 -0.263177,0.06509 -0.359375,0.167969 -0.0962,0.102878 -0.156318,0.243266 -0.162109,0.359375 -0.01208,0.24231 0.179587,0.59048 0.427734,0.861328 0.124074,0.135424 0.25903,0.251884 0.376953,0.332031 0.117924,0.08015 0.228032,0.115235 0.246094,0.115235 0.01806,0 0.128171,-0.03509 0.246094,-0.115235 0.117923,-0.08015 0.252879,-0.196607 0.376953,-0.332031 0.248147,-0.270848 0.43982,-0.619018 0.427734,-0.861328 -0.0058,-0.116107 -0.06591,-0.256497 -0.162109,-0.359375 -0.0962,-0.102878 -0.221507,-0.167969 -0.359375,-0.167969 -0.164432,0 -0.317781,0.07605 -0.416016,0.207032 a 0.14076888,0.14076888 0 0 1 -0.226562,0 c -0.09823,-0.130981 -0.251585,-0.207032 -0.416016,-0.207032 z"
				 transform="matrix(0.66341908,0,0,0.66203986,5.3573069,2.5057654)" />
			<path
				 id="path916-5-2"
				 style="fill:#030303;fill-opacity:1;stroke:none;stroke-width:0.132292;stroke-miterlimit:4;stroke-dasharray:0.132292, 0.132292;stroke-dashoffset:0;stroke-opacity:1"
				 sodipodi:type="inkscape:offset"
				 inkscape:radius="-0.1407548"
				 inkscape:original="M 17.566406 13.550781 C 17.201094 13.550781 16.919829 13.899509 16.904297 14.210938 C 16.873077 14.836899 17.777994 15.667969 18.095703 15.667969 C 18.413412 15.667969 19.318329 14.836899 19.287109 14.210938 C 19.271579 13.89951 18.990312 13.550781 18.625 13.550781 C 18.416801 13.550781 18.220622 13.647889 18.095703 13.814453 C 17.970784 13.647894 17.774606 13.550781 17.566406 13.550781 z "
				 d="m 17.566406,13.691406 c -0.137867,0 -0.263177,0.06509 -0.359375,0.167969 -0.0962,0.102878 -0.156318,0.243266 -0.162109,0.359375 -0.01208,0.24231 0.179587,0.59048 0.427734,0.861328 0.124074,0.135424 0.25903,0.251884 0.376953,0.332031 0.117924,0.08015 0.228032,0.115235 0.246094,0.115235 0.01806,0 0.128171,-0.03509 0.246094,-0.115235 0.117923,-0.08015 0.252879,-0.196607 0.376953,-0.332031 0.248147,-0.270848 0.43982,-0.619018 0.427734,-0.861328 -0.0058,-0.116107 -0.06591,-0.256497 -0.162109,-0.359375 -0.0962,-0.102878 -0.221507,-0.167969 -0.359375,-0.167969 -0.164432,0 -0.317781,0.07605 -0.416016,0.207032 a 0.14076888,0.14076888 0 0 1 -0.226562,0 c -0.09823,-0.130981 -0.251585,-0.207032 -0.416016,-0.207032 z"
				 transform="matrix(0.66341909,0,0,0.66203987,3.4999381,2.5004674)" />
			<path
				 id="path916-5-2-7"
				 style="fill:#030303;fill-opacity:1;stroke:none;stroke-width:0.132292;stroke-miterlimit:4;stroke-dasharray:0.132292, 0.132292;stroke-dashoffset:0;stroke-opacity:1"
				 sodipodi:type="inkscape:offset"
				 inkscape:radius="-0.1407548"
				 inkscape:original="M 17.566406 13.550781 C 17.201094 13.550781 16.919829 13.899509 16.904297 14.210938 C 16.873077 14.836899 17.777994 15.667969 18.095703 15.667969 C 18.413412 15.667969 19.318329 14.836899 19.287109 14.210938 C 19.271579 13.89951 18.990312 13.550781 18.625 13.550781 C 18.416801 13.550781 18.220622 13.647889 18.095703 13.814453 C 17.970784 13.647894 17.774606 13.550781 17.566406 13.550781 z "
				 d="m 17.566406,13.691406 c -0.137867,0 -0.263177,0.06509 -0.359375,0.167969 -0.0962,0.102878 -0.156318,0.243266 -0.162109,0.359375 -0.01208,0.24231 0.179587,0.59048 0.427734,0.861328 0.124074,0.135424 0.25903,0.251884 0.376953,0.332031 0.117924,0.08015 0.228032,0.115235 0.246094,0.115235 0.01806,0 0.128171,-0.03509 0.246094,-0.115235 0.117923,-0.08015 0.252879,-0.196607 0.376953,-0.332031 0.248147,-0.270848 0.43982,-0.619018 0.427734,-0.861328 -0.0058,-0.116107 -0.06591,-0.256497 -0.162109,-0.359375 -0.0962,-0.102878 -0.221507,-0.167969 -0.359375,-0.167969 -0.164432,0 -0.317781,0.07605 -0.416016,0.207032 a 0.14076888,0.14076888 0 0 1 -0.226562,0 c -0.09823,-0.130981 -0.251585,-0.207032 -0.416016,-0.207032 z"
				 transform="matrix(0.66341909,0,0,0.66203987,7.2146761,2.4951695)" />
		</g>
	</g>
</svg>
