<?xml version="1.0" encoding="UTF-8" standalone="no"?>
<svg
   xmlns:dc="http://purl.org/dc/elements/1.1/"
   xmlns:cc="http://creativecommons.org/ns#"
   xmlns:rdf="http://www.w3.org/1999/02/22-rdf-syntax-ns#"
   xmlns:svg="http://www.w3.org/2000/svg"
   xmlns="http://www.w3.org/2000/svg"
   xmlns:sodipodi="http://sodipodi.sourceforge.net/DTD/sodipodi-0.dtd"
   xmlns:inkscape="http://www.inkscape.org/namespaces/inkscape"
   width="128"
   height="128"
   viewBox="0 0 33.866666 33.866668"
   version="1.1"
   id="svg8"
   inkscape:version="1.0.1 (3bc2e813f5, 2020-09-07)"
   sodipodi:docname="rank9000.svg">
  <defs
     id="defs2" />
  <sodipodi:namedview
     id="base"
     pagecolor="#ffffff"
     bordercolor="#666666"
     borderopacity="1.0"
     inkscape:pageopacity="0.0"
     inkscape:pageshadow="2"
     inkscape:zoom="5.6568543"
     inkscape:cx="43.47884"
     inkscape:cy="80.6097"
     inkscape:document-units="px"
     inkscape:current-layer="g1008"
     inkscape:document-rotation="0"
     showgrid="false"
     units="px"
     inkscape:window-width="2560"
     inkscape:window-height="1346"
     inkscape:window-x="-11"
     inkscape:window-y="-11"
     inkscape:window-maximized="1" />
  <metadata
     id="metadata5">
    <rdf:RDF>
      <cc:Work
         rdf:about="">
        <dc:format>image/svg+xml</dc:format>
        <dc:type
           rdf:resource="http://purl.org/dc/dcmitype/StillImage" />
        <dc:title></dc:title>
      </cc:Work>
    </rdf:RDF>
  </metadata>
  <g
     inkscape:label="Layer 1"
     inkscape:groupmode="layer"
     id="layer1">
    <g
       id="g1008"
       transform="matrix(1.3821839,0,0,1.3793104,-6.4716482,-6.4229906)">
      <path
         style="fill:#000000;stroke-width:0.041599"
         d="m 12.543362,27.217382 c -0.137134,-0.0313 -0.450185,-0.0947 -0.695669,-0.140887 -0.528822,-0.09949 -0.799582,-0.195385 -1.148365,-0.406719 -0.313566,-0.189996 -1.0183285,-0.73298 -0.9716165,-0.748583 0.01851,-0.0062 0.228496,0.05451 0.4666435,0.134882 0.494112,0.166747 0.499775,0.167705 0.499775,0.08452 0,-0.06803 -0.125087,-0.187975 -0.8307795,-0.79661 C 8.5179644,24.18363 8.1819784,23.645691 7.8895093,22.183711 7.7886031,21.679306 7.681909,20.836702 7.714775,20.803767 c 0.00979,-0.0098 0.097809,0.11865 0.1956086,0.285456 0.4016602,0.685068 0.8504143,1.185015 1.242287,1.384006 0.2031266,0.103146 0.5400029,0.207377 0.5707299,0.176585 0.01002,-0.01004 -0.104736,-0.243588 -0.255016,-0.518992 -0.9430564,-1.728255 -1.3585189,-3.232617 -1.2306711,-4.456178 0.1697041,-1.624144 1.117417,-3.324241 2.9471536,-5.28688 0.486233,-0.521551 0.631269,-0.653078 0.631269,-0.57247 0,0.01174 -0.102044,0.264226 -0.226764,0.561079 -0.511191,1.216707 -0.67757,1.984116 -0.467963,2.158436 0.149823,0.124601 0.257269,0.09925 0.634529,-0.149696 0.284783,-0.187925 0.478139,-0.364078 0.825679,-0.752217 0.498675,-0.556932 0.689945,-0.699802 1.125307,-0.840555 0.473347,-0.153033 0.579684,-0.244802 0.97922,-0.845063 0.267648,-0.402114 0.820088,-1.474782 1.038696,-2.0168264 0.0762,-0.1889521 0.15116,-0.3435493 0.166566,-0.3435493 0.01541,0 0.0412,0.1358581 0.05731,0.301907 0.07773,0.8009017 0.25747,1.4152277 0.454531,1.5535427 0.211681,0.148576 0.570437,0.02213 0.854391,-0.301127 0.502351,-0.57189 0.906298,-2.062463 1.089868,-4.0216314 0.02736,-0.2920169 0.06036,-0.5309399 0.07333,-0.5309399 0.01297,0 0.06871,0.085246 0.123869,0.1894359 0.05516,0.1041898 0.307577,0.4159519 0.560932,0.6928047 1.14702,1.2534046 1.604066,1.8214624 2.009052,2.497035 0.430429,0.7180127 0.703429,1.3373837 0.924161,2.0966927 0.165919,0.570756 0.318096,0.954696 0.608998,1.536493 0.39279,0.785571 0.789063,1.294308 0.986206,1.266098 0.111249,-0.01592 0.168306,-0.185312 0.228733,-0.679067 0.08111,-0.662714 0.05269,-1.229916 -0.123714,-2.469592 -0.04664,-0.327757 -0.07819,-0.615786 -0.07012,-0.640064 0.0081,-0.02428 0.126592,0.0846 0.26337,0.241962 1.549508,1.782646 2.348284,3.905666 2.246289,5.970284 -0.10288,2.082547 -0.944299,4.03052 -2.484524,5.751936 -0.387961,0.4336 -0.367183,0.430757 0.397372,-0.05436 0.562454,-0.356883 1.164474,-0.808217 1.509647,-1.131783 0.144706,-0.135647 0.275293,-0.234415 0.290193,-0.219484 0.126435,0.126699 -0.836185,2.046601 -1.268566,2.5301 -0.33306,0.372434 -1.171536,0.986327 -2.012497,1.473453 -0.154276,0.08936 -0.280502,0.177326 -0.280502,0.195471 0,0.04116 -0.01291,0.04181 0.254052,-0.01281 0.27381,-0.05602 0.334339,-0.06345 0.80562,-0.09888 l 0.374002,-0.02811 -0.477891,0.317272 c -0.590948,0.392331 -1.249812,0.718778 -1.849232,0.916236 -0.903771,0.297717 -1.006714,0.275657 -0.473502,-0.101467 0.49705,-0.351549 0.743394,-0.636482 0.991355,-1.146643 0.291004,-0.598724 0.381675,-0.920373 0.406406,-1.441709 0.04238,-0.893472 -0.254876,-1.24182 -0.815238,-0.955349 -0.358388,0.183217 -0.553147,0.415479 -1.189366,1.418392 l -0.11883,0.18732 -0.03121,-0.116929 c -0.01716,-0.06431 -0.116676,-0.21718 -0.221138,-0.339709 -0.194779,-0.228466 -0.22361,-0.304842 -0.144862,-0.383754 0.03239,-0.03246 0.0032,-0.0772 -0.103889,-0.15902 -0.08193,-0.06262 -0.14896,-0.126405 -0.14896,-0.141744 0,-0.01534 0.194661,-0.18262 0.432579,-0.371733 0.458407,-0.364372 0.526335,-0.462746 0.581423,-0.842025 0.06897,-0.474859 -0.1565,-1.548299 -0.450813,-2.146272 -0.307853,-0.625484 -0.589768,-0.84974 -1.068139,-0.849681 -0.35891,4.2e-5 -0.694863,0.161221 -1.024441,0.491486 -0.349605,0.350333 -0.552811,0.665223 -1.010756,1.566274 -0.28519,0.56114 -0.407127,0.764755 -0.423947,0.70792 -0.01299,-0.04388 -0.04447,-0.198903 -0.06996,-0.344495 -0.121337,-0.693049 -0.410802,-1.434014 -0.714124,-1.827994 -0.459941,-0.597411 -1.268793,-0.874416 -1.799522,-0.616277 -0.388405,0.188916 -0.650855,0.496995 -0.97528,1.144845 -0.336207,0.671379 -0.465332,1.085042 -0.489341,1.567661 -0.01399,0.281314 -0.0047,0.450321 0.02825,0.511963 0.02703,0.05061 0.178944,0.175392 0.337587,0.277292 0.26298,0.168917 0.354895,0.269103 0.246887,0.269103 -0.100647,0 -0.207778,0.171429 -0.207778,0.332482 0,0.19094 -0.182456,0.440521 -0.290961,0.398006 -0.03424,-0.01342 -0.121771,-0.131734 -0.194503,-0.262926 -0.297202,-0.53608 -0.855425,-1.065451 -1.179011,-1.118071 -0.336196,-0.05467 -0.492212,0.274506 -0.525418,1.108575 -0.01668,0.41894 -0.0046,0.597736 0.06205,0.916131 0.185325,0.885751 0.387034,1.212122 1.099023,1.778252 0.282195,0.224384 0.637633,0.491577 0.789862,0.593762 0.152229,0.102185 0.272946,0.18856 0.268259,0.191943 -0.05728,0.04135 -0.265077,0.03778 -0.465636,-0.008 z m 3.49476,-1.047964 c -0.04347,-0.0096 -0.117121,-0.05296 -0.16367,-0.09642 -0.04655,-0.04346 -0.134918,-0.07901 -0.196377,-0.07901 -0.138667,0 -0.222518,-0.09506 -0.19086,-0.216377 0.03022,-0.115821 -0.426815,-0.692129 -0.941788,-1.187553 -0.472038,-0.45412 -0.543237,-0.488838 -1.004727,-0.489919 -0.215342,-5.04e-4 -0.377547,-0.01854 -0.382359,-0.04252 -0.0046,-0.0229 0.07477,-0.147665 0.176362,-0.277249 0.186242,-0.237551 0.453618,-0.409849 0.63601,-0.409849 0.361409,0 0.794042,0.480114 1.574017,1.746763 0.219352,0.356219 0.426756,0.680465 0.460899,0.720545 0.092,0.107999 0.202386,0.08963 0.250231,-0.04164 l 0.04174,-0.114516 0.0033,0.108302 c 0.0043,0.142133 -0.07267,0.359552 -0.134679,0.380381 -0.02697,0.0091 -0.08461,0.0086 -0.128076,-9.33e-4 z m 0.642224,-0.12338 c -0.0238,-0.08589 -0.04265,-0.212376 -0.04188,-0.281086 l 0.0014,-0.124927 0.0566,0.130339 c 0.07465,0.171883 0.132288,0.202115 0.243251,0.127578 0.05042,-0.03387 0.437624,-0.365496 0.860454,-0.73695 0.42283,-0.371454 0.824882,-0.7107 0.893449,-0.75388 0.163548,-0.102994 0.39695,-0.101031 0.530787,0.0045 0.05811,0.04581 0.133905,0.08329 0.168428,0.08329 0.176957,0 0.194234,0.03789 0.194234,0.425958 v 0.375405 l -0.0935,-0.06744 c -0.186527,-0.134531 -0.404218,-0.234218 -0.511472,-0.234218 -0.06651,0 -0.378728,0.16689 -0.793988,0.42441 -0.559668,0.347075 -0.694886,0.44962 -0.74206,0.562757 -0.06499,0.155859 -0.159797,0.210895 -0.243454,0.141321 -0.04254,-0.03538 -0.06903,-0.03143 -0.108448,0.01616 -0.02994,0.03615 -0.119964,0.06298 -0.211339,0.06298 -0.148546,0 -0.162074,-0.01043 -0.202459,-0.156159 z"
         id="path3875" />
    </g>
  </g>
</svg>
