<?xml version="1.0" encoding="UTF-8" standalone="no"?>
<svg
   xmlns:dc="http://purl.org/dc/elements/1.1/"
   xmlns:cc="http://creativecommons.org/ns#"
   xmlns:rdf="http://www.w3.org/1999/02/22-rdf-syntax-ns#"
   xmlns:svg="http://www.w3.org/2000/svg"
   xmlns="http://www.w3.org/2000/svg"
   xmlns:sodipodi="http://sodipodi.sourceforge.net/DTD/sodipodi-0.dtd"
   xmlns:inkscape="http://www.inkscape.org/namespaces/inkscape"
   width="128"
   height="128"
   viewBox="0 0 33.866666 33.866668"
   version="1.1"
   id="svg8"
   inkscape:version="1.0.1 (3bc2e813f5, 2020-09-07)"
   sodipodi:docname="chuuni.svg">
  <defs
     id="defs2">
    <inkscape:perspective
       sodipodi:type="inkscape:persp3d"
       inkscape:vp_x="0 : 16.933334 : 1"
       inkscape:vp_y="0 : 1000 : 0"
       inkscape:vp_z="33.866666 : 16.933334 : 1"
       inkscape:persp3d-origin="16.933333 : 11.288889 : 1"
       id="perspective3945" />
  </defs>
  <sodipodi:namedview
     id="base"
     pagecolor="#ffffff"
     bordercolor="#666666"
     borderopacity="1.0"
     inkscape:pageopacity="0.0"
     inkscape:pageshadow="2"
     inkscape:zoom="8"
     inkscape:cx="36.792324"
     inkscape:cy="62.25928"
     inkscape:document-units="px"
     inkscape:current-layer="g1008"
     inkscape:document-rotation="0"
     showgrid="false"
     units="px"
     inkscape:window-width="2560"
     inkscape:window-height="1346"
     inkscape:window-x="-11"
     inkscape:window-y="-11"
     inkscape:window-maximized="1" />
  <metadata
     id="metadata5">
    <rdf:RDF>
      <cc:Work
         rdf:about="">
        <dc:format>image/svg+xml</dc:format>
        <dc:type
           rdf:resource="http://purl.org/dc/dcmitype/StillImage" />
        <dc:title />
      </cc:Work>
    </rdf:RDF>
  </metadata>
  <g
     inkscape:label="Layer 1"
     inkscape:groupmode="layer"
     id="layer1">
    <g
       id="g1008"
       transform="matrix(1.3821839,0,0,1.3793104,-6.4716482,-6.4229906)">
      <path
         style="fill:none;stroke:#000000;stroke-width:0.248062px;stroke-linecap:butt;stroke-linejoin:miter;stroke-opacity:1"
         d="m 19.789406,11.631404 0.712436,-0.496641 3.469257,-0.51216"
         id="path3963" />
      <path
         style="fill:none;stroke:#000000;stroke-width:0.248062px;stroke-linecap:butt;stroke-linejoin:miter;stroke-opacity:1"
         d="m 16.459539,11.693484 -0.48012,-0.388 -2.942673,-0.26384"
         id="path3965" />
      <ellipse
         style="fill:#000000;fill-opacity:1;stroke:#000000;stroke-width:0.0992249;stroke-miterlimit:4;stroke-dasharray:none;stroke-opacity:1"
         id="path3967"
         cx="14.964971"
         cy="11.546043"
         rx="0.34847441"
         ry="0.30264035" />
      <ellipse
         style="fill:#000000;fill-opacity:1;stroke:#000000;stroke-width:0.0992249;stroke-miterlimit:4;stroke-dasharray:none;stroke-opacity:1"
         id="path3969"
         cx="21.733122"
         cy="11.258924"
         rx="0.34847441"
         ry="0.31040037" />
      <path
         style="fill:none;stroke:#000000;stroke-width:0.124031;stroke-linecap:butt;stroke-linejoin:miter;stroke-miterlimit:4;stroke-dasharray:none;stroke-opacity:1"
         d="m 16.459539,11.693484 c 0,0 -0.263564,0.563181 -1.672676,0.58976 -0.469372,0.0088 -1.393899,-0.20176 -1.393899,-0.20176"
         id="path3971"
         sodipodi:nodetypes="csc" />
      <path
         style="fill:none;stroke:#000000;stroke-width:0.124031;stroke-linecap:butt;stroke-linejoin:miter;stroke-miterlimit:4;stroke-dasharray:none;stroke-opacity:1"
         d="m 23.614881,11.026124 c 0,0 -0.499454,0.563221 -0.836339,0.6984 -0.715709,0.287188 -2.307675,0.1552 -2.307675,0.1552"
         id="path3973"
         sodipodi:nodetypes="cac" />
      <path
         style="fill:none;stroke:#000000;stroke-width:0.248062px;stroke-linecap:butt;stroke-linejoin:miter;stroke-opacity:1"
         d="m 21.152329,17.746291 -1.65719,-0.13968"
         id="path3975" />
      <path
         style="fill:#ffffff;fill-opacity:1;stroke:#000000;stroke-width:0.248062px;stroke-linecap:butt;stroke-linejoin:miter;stroke-opacity:1"
         d="M 15.266983,26.297821 C 13.554321,25.309313 12.92991,23.359276 12.541139,22.697177 11.873867,21.56078 4.8943309,20.116434 5.385797,18.568852 c 0.4731082,-1.489774 6.010166,1.465363 6.319002,0.900161 0.868483,-1.589411 -7.4716263,-5.505838 -5.9163205,-7.232329 1.3731245,-1.524257 6.8301575,5.614711 7.6509495,4.842246 0.836356,-0.787112 -4.960805,-8.1500209 -3.345355,-9.2809705 1.539969,-1.0781056 5.405885,8.6996555 6.659734,8.2256095 1.664338,-0.62924 -1.26863,-9.4021057 0.61951,-9.5292906 2.31871,-0.1561875 1.015261,9.7237276 3.964865,12.8505736 0.849035,-0.975669 1.265047,-1.60902 1.486824,-1.955521 0.0946,-1.165445 1.736496,-2.985588 2.694869,-2.296963 1.170803,0.841263 -0.472847,1.677809 -0.650487,2.529763 -0.108222,0.519003 -0.204483,1.016872 -0.309754,1.536482 -0.643746,0.786298 -1.084142,3.476484 -1.084142,3.476484 0,0 -1.119131,1.863373 -1.579751,3.135043 l 0.788581,5.20952 -6.783282,0.02645 z"
         id="path3961"
         sodipodi:nodetypes="cssssssssccsscccccc" />
    </g>
  </g>
</svg>
