<?xml version="1.0" encoding="UTF-8" standalone="no"?>
<svg
   xmlns:dc="http://purl.org/dc/elements/1.1/"
   xmlns:cc="http://creativecommons.org/ns#"
   xmlns:rdf="http://www.w3.org/1999/02/22-rdf-syntax-ns#"
   xmlns:svg="http://www.w3.org/2000/svg"
   xmlns="http://www.w3.org/2000/svg"
   xmlns:sodipodi="http://sodipodi.sourceforge.net/DTD/sodipodi-0.dtd"
   xmlns:inkscape="http://www.inkscape.org/namespaces/inkscape"
   width="128"
   height="128"
   viewBox="0 0 33.866666 33.866668"
   version="1.1"
   id="svg8"
   inkscape:version="1.0.1 (3bc2e813f5, 2020-09-07)"
   sodipodi:docname="rankpeace.svg">
  <defs
     id="defs2" />
  <sodipodi:namedview
     id="base"
     pagecolor="#ffffff"
     bordercolor="#666666"
     borderopacity="1.0"
     inkscape:pageopacity="0.0"
     inkscape:pageshadow="2"
     inkscape:zoom="5.6568543"
     inkscape:cx="-14.330395"
     inkscape:cy="38.646398"
     inkscape:document-units="px"
     inkscape:current-layer="g3943"
     inkscape:document-rotation="0"
     showgrid="false"
     units="px"
     inkscape:window-width="2560"
     inkscape:window-height="1346"
     inkscape:window-x="-11"
     inkscape:window-y="-11"
     inkscape:window-maximized="1" />
  <metadata
     id="metadata5">
    <rdf:RDF>
      <cc:Work
         rdf:about="">
        <dc:format>image/svg+xml</dc:format>
        <dc:type
           rdf:resource="http://purl.org/dc/dcmitype/StillImage" />
        <dc:title />
      </cc:Work>
    </rdf:RDF>
  </metadata>
  <g
     inkscape:label="Layer 1"
     inkscape:groupmode="layer"
     id="layer1">
    <g
       id="g1008"
       transform="matrix(1.3821839,0,0,1.3793104,-6.4716482,-6.4229906)">
      <g
         id="g3943"
         transform="matrix(2.7268771,0,0,2.7268771,-28.340482,-28.705387)">
        <path
           style="color:#000000;font-style:normal;font-variant:normal;font-weight:normal;font-stretch:normal;font-size:medium;line-height:normal;font-family:sans-serif;font-variant-ligatures:normal;font-variant-position:normal;font-variant-caps:normal;font-variant-numeric:normal;font-variant-alternates:normal;font-variant-east-asian:normal;font-feature-settings:normal;font-variation-settings:normal;text-indent:0;text-align:start;text-decoration:none;text-decoration-line:none;text-decoration-style:solid;text-decoration-color:#000000;letter-spacing:normal;word-spacing:normal;text-transform:none;writing-mode:lr-tb;direction:ltr;text-orientation:mixed;dominant-baseline:auto;baseline-shift:baseline;text-anchor:start;white-space:normal;shape-padding:0;shape-margin:0;inline-size:0;clip-rule:nonzero;display:inline;overflow:visible;visibility:visible;opacity:1;isolation:auto;mix-blend-mode:normal;color-interpolation:sRGB;color-interpolation-filters:linearRGB;solid-color:#000000;solid-opacity:1;vector-effect:none;fill:#000000;fill-opacity:1;fill-rule:nonzero;stroke:none;stroke-width:0.249012px;stroke-linecap:butt;stroke-linejoin:miter;stroke-miterlimit:4;stroke-dasharray:none;stroke-dashoffset:0;stroke-opacity:1;color-rendering:auto;image-rendering:auto;shape-rendering:auto;text-rendering:auto;enable-background:accumulate;stop-color:#000000;stop-opacity:1"
           d="m 18.425622,15.778853 c 0,0 -0.110041,-0.03861 -0.231878,-0.03423 -0.120645,0.0043 -0.259727,0.0117 -0.370558,0.05472 -0.142792,0.05538 -0.276982,0.178931 -0.400972,0.286148 -0.119527,0.103361 -0.210776,0.230836 -0.210776,0.230836 l 0.09906,0.114992 c 0,0 0.09692,-0.0793 0.22335,-0.170051 0.126441,-0.09076 0.286542,-0.191899 0.380711,-0.228426 0.06221,-0.02413 0.197957,-0.05029 0.309643,-0.06345 0.111692,-0.01316 0.200508,-0.01776 0.200508,-0.01776 z"
           id="path3930"
           sodipodi:nodetypes="csssccssscc" />
        <path
           style="fill:none;fill-opacity:1;stroke:#000000;stroke-width:0.0498026;stroke-linecap:butt;stroke-linejoin:miter;stroke-miterlimit:4;stroke-dasharray:none;stroke-opacity:1"
           d="m 13.901456,16.195081 c 0.809615,-0.438687 1.208047,-0.440016 1.681757,-0.150287 0.105427,0.642253 -0.229204,1.074526 -0.684074,1.137304 -0.45487,0.06278 -0.889343,-0.256395 -0.997683,-0.987017 z"
           id="path3895"
           sodipodi:nodetypes="cccc" />
        <path
           style="fill:none;stroke:#000000;stroke-width:0.0996052;stroke-linecap:butt;stroke-linejoin:miter;stroke-miterlimit:4;stroke-dasharray:none;stroke-opacity:1"
           d="m 15.90394,18.309172 c 0,0 0.286376,0.305544 0.604641,0.352524 0.282654,0.04173 0.626628,-0.09915 0.626628,-0.09915"
           id="path3893-5"
           sodipodi:nodetypes="csc" />
        <path
           style="fill:#000000;fill-opacity:1;stroke:#000000;stroke-width:0.0498026;stroke-linecap:butt;stroke-linejoin:miter;stroke-miterlimit:4;stroke-dasharray:none;stroke-opacity:1"
           d="m 17.407153,16.554675 c -0.02469,-0.559281 1.625337,-0.02029 1.660015,-0.231343 0.101646,-0.618659 -1.636037,-0.834145 -1.407165,-1.244851 0.211318,-0.379204 1.337172,0.321052 1.418158,0.48472 0.07854,-0.03316 0.03546,-0.189806 0.109937,-0.231343 0.08699,-0.04851 0.204219,0.06965 0.296823,0.03305 0.09428,-0.03727 0.09684,-0.223404 0.197883,-0.231344 0.240472,-0.01889 0.451054,0.243568 0.582654,0.407606 0.386821,0.146976 0.834632,0.463266 0.857491,0.870293 0.0082,0.144852 0.184065,0.346754 0.184065,0.346754 l -0.01247,0.802157 c 0,0 -0.695269,-0.292973 -0.820206,-0.322683 -0.444563,-0.105713 -0.828842,-0.318697 -1.329663,-0.389934 -0.759225,-0.107988 -1.727013,-0.05511 -1.737518,-0.293078 z"
           id="path3912"
           sodipodi:nodetypes="ssscssscsccssss" />
        <path
           style="fill:none;stroke:#000000;stroke-width:0.0498026;stroke-linecap:butt;stroke-linejoin:miter;stroke-miterlimit:4;stroke-dasharray:none;stroke-opacity:1"
           d="m 17.170794,16.582216 c 0,0 0.546789,-0.512732 0.894594,-0.604524 0.196657,-0.0519 0.589524,0.0096 0.589524,0.0096"
           id="path3914"
           sodipodi:nodetypes="csc" />
        <ellipse
           style="fill:#000000;fill-opacity:1;stroke:#000000;stroke-width:0.0498026;stroke-miterlimit:4;stroke-dasharray:none;stroke-opacity:1"
           id="path3916"
           cx="14.851171"
           cy="16.604248"
           rx="0.54417676"
           ry="0.5783596" />
        <path
           style="fill:none;stroke:#000000;stroke-width:0.0498026;stroke-linecap:butt;stroke-linejoin:miter;stroke-miterlimit:4;stroke-dasharray:none;stroke-opacity:1"
           d="m 19.976768,17.080129 c 0,0 -0.370226,-0.232593 -0.460136,-0.419945 -0.06977,-0.145385 0.0034,-0.325384 -0.0311,-0.482964 -0.03137,-0.143369 -0.276616,-0.325212 -0.157748,-0.410967 0.268535,-0.193728 0.437127,0.287858 0.639709,0.449916 0.190321,0.152251 0.533878,-0.02 0.708809,0.240537 0.112653,0.167775 0.224018,0.569597 0.224018,0.569597"
           id="path3918"
           sodipodi:nodetypes="caasssc" />
        <path
           style="fill:none;stroke:#000000;stroke-width:0.0498026;stroke-linecap:butt;stroke-linejoin:miter;stroke-miterlimit:4;stroke-dasharray:none;stroke-opacity:1"
           d="m 19.484919,15.373169 c 0,0 0.318395,0.09181 0.431494,0.203803 0.102881,0.10188 0.189638,0.391082 0.189638,0.391082"
           id="path3920"
           sodipodi:nodetypes="cac" />
        <path
           style="fill:none;stroke:#000000;stroke-width:0.0498026;stroke-linecap:butt;stroke-linejoin:miter;stroke-miterlimit:4;stroke-dasharray:none;stroke-opacity:1"
           d="m 19.078161,15.563201 0.233611,0.203803"
           id="path3922" />
        <path
           style="fill:none;stroke:#000000;stroke-width:0.0498026;stroke-linecap:butt;stroke-linejoin:miter;stroke-miterlimit:4;stroke-dasharray:none;stroke-opacity:1"
           d="m 20.314928,15.552182 c 0,0 0.04449,0.23527 -0.01374,0.32774 -0.03762,0.05974 -0.08882,0.01493 -0.186889,0.09915 -0.09112,0.07824 -0.162155,0.220328 -0.162155,0.220328"
           id="path3924"
           sodipodi:nodetypes="casc" />
        <path
           style="fill:none;stroke:#000000;stroke-width:0.0498026;stroke-linecap:butt;stroke-linejoin:miter;stroke-miterlimit:4;stroke-dasharray:none;stroke-opacity:1"
           d="m 19.976877,16.41697 0.08795,0.151476"
           id="path3926" />
      </g>
    </g>
  </g>
</svg>
